<svg width="181px" height="181px" viewBox="-6.4 -6.4 76.80 76.80" xmlns="http://www.w3.org/2000/svg" fill="none" stroke="#FD7014" stroke-width="2.56"><g id="SVGRepo_bgCarrier" stroke-width="0"></g><g id="SVGRepo_tracerCarrier" stroke-linecap="round" stroke-linejoin="round" stroke="#CCCCCC" stroke-width="4.4799999999999995"></g><g id="SVGRepo_iconCarrier"><path d="M32 20c-6 0-12 0-12-6a6 6 0 0 1 6-6c6 0 6 8 6 12z"></path><path d="M32 20c6 0 12 0 12-6a6 6 0 0 0-6-6c-6 0-6 8-6 12z"></path><polyline points="12 32 12 56 52 56 52 32"></polyline><rect x="8" y="20" width="48" height="12"></rect><line x1="32" y1="20" x2="32" y2="56"></line></g></svg>